# xmcd
#
# Track frame offsets:
#	150
#	16813
#	33055
#	50781
#	62339
#	75931
#	90113
#	101563
#	112840
#	126025
#	137262
#	152402
#	167160
#	188572
#	209074
#	227556
#	241515
#	252524
#	265356
#	278197
#	305177
#
# Disc length: 4224
#
# Revision: 2
# Processed by: cddbd v1.5.1PL0 Copyright (c) Steve Scherf et al.
# Submitted via: audiograbber 1.83.01
# Normalized: r1:DSETVAR1
#
DISCID=02107e15
DTITLE=Various Artist - On The Road Again
DYEAR=2004
DGENRE=Country
TTITLE0=Toby Keith - Big Ol' Truck
TTITLE1=Joe Diffie - Pickup Man
TTITLE2=Hank Williams Jr - Brothers of the Road
TTITLE3=Steve Earle - Guitar Town
TTITLE4=Gary Allan - Right Where I Need To Be
TTITLE5=Terri Clark - A Little Gasoline
TTITLE6=Willie Nelson - On the Road Again
TTITLE7=Waylon Jennings - Rough and Rowdy Days
TTITLE8=Marty Stuart - Burn Me Down
TTITLE9=Kelly Willis - Heaven's Just a Sin Away
TTITLE10=Sammy Kershaw - Third Rate Romance
TTITLE11=Bellamy Brothers - Rebels Without a Clue
TTITLE12=Lynyrd Skynyrd - Sweet Home Alabama
TTITLE13=Joe Ely - The Road Goes on Forever
TTITLE14=Billy Ray Cyrus - Some Gave All
TTITLE15=Mark Chesnutt - Bubba Shot The Jukebox
TTITLE16=George Jones - High-Tech Redneck
TTITLE17=Tracy Byrd - Lifestyles of the Not So Rich and Famous
TTITLE18=Kentucky Headhunters - Dumas Walker
TTITLE19=Toby Keith - Should've Been a Cowboy
TTITLE20=Data - Data Track
EXTD=
EXTT0=
EXTT1=
EXTT2=
EXTT3=
EXTT4=
EXTT5=
EXTT6=
EXTT7=
EXTT8=
EXTT9=
EXTT10=
EXTT11=
EXTT12=
EXTT13=
EXTT14=
EXTT15=
EXTT16=
EXTT17=
EXTT18=
EXTT19=
EXTT20=
PLAYORDER=
